<mxfile host="app.diagrams.net" modified="2021-08-02T09:21:45.535Z" agent="5.0 (Windows)" etag="R27SiwVR7wAU3oizx27E" version="14.9.2" type="github">
  <diagram id="cl_WVMJE5ysSoHUtYMA4" name="Page-1">
    <mxGraphModel dx="1038" dy="508" grid="1" gridSize="10" guides="1" tooltips="1" connect="1" arrows="1" fold="1" page="1" pageScale="1" pageWidth="1169" pageHeight="827" math="0" shadow="0">
      <root>
        <mxCell id="0" />
        <mxCell id="1" parent="0" />
        <mxCell id="2gV9gYX4ny8Dracs0vjc-1" value="RECONCILIATION OF CASH BOOK AND BANK STATEMENT" style="swimlane;" parent="1" vertex="1">
          <mxGeometry x="10" y="20" width="1020" height="710" as="geometry" />
        </mxCell>
        <mxCell id="2gV9gYX4ny8Dracs0vjc-2" value="Start" style="rounded=1;whiteSpace=wrap;html=1;" parent="2gV9gYX4ny8Dracs0vjc-1" vertex="1">
          <mxGeometry x="90" y="50" width="120" height="60" as="geometry" />
        </mxCell>
        <mxCell id="gXfA5e-M7nAlvuN9M8Uj-3" value="" style="edgeStyle=orthogonalEdgeStyle;rounded=0;orthogonalLoop=1;jettySize=auto;html=1;" edge="1" parent="2gV9gYX4ny8Dracs0vjc-1" source="gXfA5e-M7nAlvuN9M8Uj-1" target="gXfA5e-M7nAlvuN9M8Uj-2">
          <mxGeometry relative="1" as="geometry" />
        </mxCell>
        <mxCell id="gXfA5e-M7nAlvuN9M8Uj-1" value="&lt;span lang=&quot;EN-GB&quot;&gt;System automatically notifies cashier to obtain bank statement at the 5&lt;sup&gt;th&lt;/sup&gt; day of the month&lt;/span&gt;" style="rounded=0;whiteSpace=wrap;html=1;" vertex="1" parent="2gV9gYX4ny8Dracs0vjc-1">
          <mxGeometry x="65" y="190" width="170" height="80" as="geometry" />
        </mxCell>
        <mxCell id="2gV9gYX4ny8Dracs0vjc-4" value="" style="edgeStyle=orthogonalEdgeStyle;rounded=0;orthogonalLoop=1;jettySize=auto;html=1;" parent="2gV9gYX4ny8Dracs0vjc-1" source="2gV9gYX4ny8Dracs0vjc-2" target="gXfA5e-M7nAlvuN9M8Uj-1" edge="1">
          <mxGeometry relative="1" as="geometry">
            <mxPoint x="150" y="190" as="targetPoint" />
          </mxGeometry>
        </mxCell>
        <mxCell id="gXfA5e-M7nAlvuN9M8Uj-5" value="" style="edgeStyle=orthogonalEdgeStyle;rounded=0;orthogonalLoop=1;jettySize=auto;html=1;" edge="1" parent="2gV9gYX4ny8Dracs0vjc-1" source="gXfA5e-M7nAlvuN9M8Uj-2" target="gXfA5e-M7nAlvuN9M8Uj-4">
          <mxGeometry relative="1" as="geometry" />
        </mxCell>
        <mxCell id="gXfA5e-M7nAlvuN9M8Uj-2" value="&lt;span lang=&quot;EN-GB&quot;&gt;Cashier downloads statement from the bank in excel format (outside system) and forward to ABR&lt;/span&gt;" style="whiteSpace=wrap;html=1;rounded=0;" vertex="1" parent="2gV9gYX4ny8Dracs0vjc-1">
          <mxGeometry x="60" y="340" width="180" height="80" as="geometry" />
        </mxCell>
        <mxCell id="gXfA5e-M7nAlvuN9M8Uj-7" value="" style="edgeStyle=orthogonalEdgeStyle;rounded=0;orthogonalLoop=1;jettySize=auto;html=1;" edge="1" parent="2gV9gYX4ny8Dracs0vjc-1" source="gXfA5e-M7nAlvuN9M8Uj-4" target="gXfA5e-M7nAlvuN9M8Uj-6">
          <mxGeometry relative="1" as="geometry" />
        </mxCell>
        <mxCell id="gXfA5e-M7nAlvuN9M8Uj-4" value="&lt;span lang=&quot;EN-GB&quot;&gt;Accountant Bank Reconciliation uploads bank statement transactions into the system (system should convert uploaded excel into entries)&lt;/span&gt;" style="whiteSpace=wrap;html=1;rounded=0;" vertex="1" parent="2gV9gYX4ny8Dracs0vjc-1">
          <mxGeometry x="55" y="500" width="190" height="90" as="geometry" />
        </mxCell>
        <mxCell id="gXfA5e-M7nAlvuN9M8Uj-6" value="&lt;span lang=&quot;EN-GB&quot;&gt;Initiate auto reconciliation in the system, generatereports and forward to cashier&lt;/span&gt;" style="whiteSpace=wrap;html=1;rounded=0;" vertex="1" parent="2gV9gYX4ny8Dracs0vjc-1">
          <mxGeometry x="360" y="500" width="140" height="90" as="geometry" />
        </mxCell>
        <mxCell id="2gV9gYX4ny8Dracs0vjc-22" value="&lt;span lang=&quot;EN-GB&quot;&gt;FA makes necessary amendments to the cashbook&lt;/span&gt;" style="whiteSpace=wrap;html=1;rounded=0;" parent="2gV9gYX4ny8Dracs0vjc-1" vertex="1">
          <mxGeometry x="625" y="340" width="130" height="70" as="geometry" />
        </mxCell>
        <mxCell id="2gV9gYX4ny8Dracs0vjc-23" value="" style="edgeStyle=orthogonalEdgeStyle;rounded=0;orthogonalLoop=1;jettySize=auto;html=1;" parent="2gV9gYX4ny8Dracs0vjc-1" source="2gV9gYX4ny8Dracs0vjc-20" target="2gV9gYX4ny8Dracs0vjc-22" edge="1">
          <mxGeometry relative="1" as="geometry" />
        </mxCell>
        <mxCell id="2gV9gYX4ny8Dracs0vjc-20" value="Cashier signs and forwards to Fund accountant (FA) for action" style="whiteSpace=wrap;html=1;rounded=0;" parent="2gV9gYX4ny8Dracs0vjc-1" vertex="1">
          <mxGeometry x="620" y="185" width="140" height="70" as="geometry" />
        </mxCell>
        <mxCell id="2gV9gYX4ny8Dracs0vjc-24" value="FA approves the bank reconciliation statement" style="whiteSpace=wrap;html=1;rounded=0;" parent="2gV9gYX4ny8Dracs0vjc-1" vertex="1">
          <mxGeometry x="630" y="495" width="120" height="60" as="geometry" />
        </mxCell>
        <mxCell id="2gV9gYX4ny8Dracs0vjc-25" value="" style="edgeStyle=orthogonalEdgeStyle;rounded=0;orthogonalLoop=1;jettySize=auto;html=1;" parent="2gV9gYX4ny8Dracs0vjc-1" source="2gV9gYX4ny8Dracs0vjc-22" target="2gV9gYX4ny8Dracs0vjc-24" edge="1">
          <mxGeometry relative="1" as="geometry" />
        </mxCell>
        <mxCell id="2gV9gYX4ny8Dracs0vjc-28" value="End" style="rounded=1;whiteSpace=wrap;html=1;" parent="2gV9gYX4ny8Dracs0vjc-1" vertex="1">
          <mxGeometry x="847" y="495" width="120" height="60" as="geometry" />
        </mxCell>
        <mxCell id="2gV9gYX4ny8Dracs0vjc-27" value="" style="edgeStyle=orthogonalEdgeStyle;rounded=0;orthogonalLoop=1;jettySize=auto;html=1;entryX=0;entryY=0.5;entryDx=0;entryDy=0;" parent="2gV9gYX4ny8Dracs0vjc-1" source="2gV9gYX4ny8Dracs0vjc-24" target="2gV9gYX4ny8Dracs0vjc-28" edge="1">
          <mxGeometry relative="1" as="geometry">
            <mxPoint x="690" y="635" as="targetPoint" />
          </mxGeometry>
        </mxCell>
        <mxCell id="2gV9gYX4ny8Dracs0vjc-21" value="" style="edgeStyle=orthogonalEdgeStyle;rounded=0;orthogonalLoop=1;jettySize=auto;html=1;" parent="1" target="2gV9gYX4ny8Dracs0vjc-20" edge="1">
          <mxGeometry relative="1" as="geometry">
            <mxPoint x="440" y="240" as="sourcePoint" />
          </mxGeometry>
        </mxCell>
      </root>
    </mxGraphModel>
  </diagram>
</mxfile>
